<?xml version="1.0" encoding="utf-8"?>
<!-- Generator: Adobe Illustrator 16.0.3, SVG Export Plug-In . SVG Version: 6.00 Build 0)  -->
<!DOCTYPE svg PUBLIC "-//W3C//DTD SVG 1.1//EN" "http://www.w3.org/Graphics/SVG/1.1/DTD/svg11.dtd">
<svg version="1.1" id="Layer_1" xmlns="http://www.w3.org/2000/svg" xmlns:xlink="http://www.w3.org/1999/xlink" x="0px" y="0px"
	 width="266px" height="266px" viewBox="0 0 266 266" enable-background="new 0 0 266 266" xml:space="preserve">
<title>Searching</title>
<desc>Created with Sketch.</desc>
<g id="Page-1">
	<g id="Searching">
		<circle id="Oval-1-Copy" fill="#2FFAF5" cx="133" cy="133" r="133"/>
		<g enable-background="new    ">
			<path fill="#6C7A88" d="M70.269,80.836c-0.271,1.093-0.503,2.165-0.696,3.218l-0.698,3.16l10.247-2.143l-0.528,8.214
				c-4.014,0.626-7.793,1.351-11.338,2.172c-0.941,5.231-1.687,10.404-2.236,15.518l-10.04,2.584l6.856-42.012l20.038-2.812
				l-0.701,10.808C77.264,79.896,73.63,80.327,70.269,80.836z"/>
			<path fill="#6C7A88" d="M101.114,67.68c4.14,0,7.07,2.306,8.789,6.914c0.898,2.383,1.348,5.001,1.348,7.852
				c0,2.734-0.41,5.704-1.23,8.906c-1.446,5.47-3.946,10.509-7.5,15.117c-4.336,5.625-8.926,8.438-13.77,8.438
				c-4.18,0-7.148-2.305-8.906-6.914c-0.859-2.265-1.289-4.805-1.289-7.617c0-2.773,0.43-5.78,1.289-9.023
				c1.445-5.508,3.926-10.566,7.441-15.176C91.622,70.513,96.23,67.68,101.114,67.68z M99.004,82.211
				c-2.149,0-4.336,1.758-6.562,5.273c-1.797,2.774-3.047,5.488-3.75,8.145c-0.352,1.406-0.527,2.676-0.527,3.809
				c0,1.603,0.39,2.91,1.172,3.926c0.898,1.134,2.148,1.699,3.75,1.699c2.187,0,4.16-1.151,5.918-3.457
				c1.406-1.836,2.421-4.004,3.047-6.504c0.742-2.93,0.898-5.82,0.469-8.672C102.051,83.617,100.879,82.211,99.004,82.211z"/>
			<path fill="#6C7A88" d="M115.373,72.133l10.02-1.875c-2.695,10.234-4.688,19.415-5.977,27.539l5.566-2.344l4.102-23.32
				l10.02-1.875c-4.062,16.017-6.7,29.59-7.91,40.723l-9.375,2.578l1.172-6.504c-3.281,1.445-8.243,3.613-14.883,6.504
				L115.373,72.133z"/>
			<path fill="#6C7A88" d="M141.996,72.309l10.137-2.051c-0.078,1.211-0.117,2.93-0.117,5.156c0,5.312,0.176,9.981,0.527,14.004
				c0.195,2.306,0.488,4.16,0.879,5.566l3.984-22.852l10.078-1.875c-4.062,15.665-6.719,29.238-7.969,40.723l-9.258,2.578
				c-0.039-0.078-0.293-0.762-0.762-2.051l-3.047-8.672c-0.508-1.406-0.801-2.305-0.879-2.695c-0.82,4.609-1.465,9.082-1.934,13.418
				l-9.375,2.812L141.996,72.309z"/>
			<path fill="#6C7A88" d="M169.029,72.074c4.491-1.484,8.3-2.227,11.426-2.227c3.516,0,6.19,0.918,8.027,2.754
				c2.538,2.617,3.809,5.801,3.809,9.551c0,1.368-0.176,2.812-0.527,4.336c-1.523,6.876-5.118,12.882-10.781,18.018
				c-5.665,5.137-11.974,8.154-18.926,9.053c0.078-0.858,0.488-3.418,1.23-7.676l4.688-26.953
				C168.638,74.907,168.989,72.622,169.029,72.074z M177.408,81.742c-1.798,7.656-3.164,14.903-4.102,21.738
				c2.344-2.227,4.433-4.805,6.27-7.734c2.265-3.594,3.398-6.68,3.398-9.258C182.975,83.169,181.118,81.587,177.408,81.742z"/>
			<path fill="#6C7A88" d="M196.354,103.949c1.366-0.195,2.578,0,3.633,0.586c1.249,0.625,1.875,1.603,1.875,2.93
				c0,1.797-0.958,3.438-2.871,4.922c-1.485,1.172-3.105,1.875-4.863,2.109c-1.406,0.195-2.618,0.038-3.633-0.469
				c-1.21-0.624-1.816-1.602-1.816-2.93c0-1.796,0.919-3.457,2.754-4.98C192.916,104.907,194.557,104.184,196.354,103.949z
				 M202.976,67.504l12.246,2.051c-3.243,5.821-5.625,10.371-7.148,13.652c-2.071,4.492-3.907,9.355-5.508,14.59l-8.145-0.352
				L202.976,67.504z"/>
		</g>
		<g enable-background="new    ">
			<path fill="#6C7A88" d="M71.05,143.67l-3.75-11.91c-0.041-0.12-0.045-0.215-0.015-0.285c0.03-0.069,0.165-0.119,0.405-0.149
				c0.24-0.03,0.63-0.05,1.17-0.061c0.54-0.01,1.3-0.015,2.28-0.015l0.87,3.93c0.08,0.36,0.165,0.801,0.255,1.32
				c0.09,0.521,0.169,1.05,0.24,1.59s0.135,1.065,0.195,1.575s0.109,0.936,0.15,1.275c0.02-0.34,0.065-0.766,0.135-1.275
				c0.07-0.51,0.145-1.04,0.225-1.59s0.165-1.085,0.255-1.605c0.09-0.52,0.175-0.96,0.255-1.319l0.72-3.301
				c0.04-0.14,0.09-0.255,0.15-0.345c0.06-0.09,0.205-0.149,0.435-0.18s0.575-0.05,1.035-0.061c0.46-0.01,1.12-0.015,1.98-0.015
				l-3.63,12.18v8.221c0,0.16-0.015,0.28-0.045,0.359c-0.03,0.08-0.15,0.135-0.36,0.165c-0.21,0.03-0.54,0.051-0.99,0.061
				s-1.105,0.015-1.965,0.015V143.67z"/>
			<path fill="#6C7A88" d="M78.041,141.63c0-2.04,0.115-3.739,0.345-5.1s0.585-2.455,1.065-3.285c0.48-0.83,1.08-1.415,1.8-1.755
				c0.72-0.34,1.56-0.51,2.52-0.51c0.979,0,1.81,0.16,2.49,0.479c0.68,0.32,1.23,0.88,1.65,1.68c0.42,0.801,0.725,1.881,0.915,3.24
				c0.19,1.36,0.285,3.07,0.285,5.13c0,2.101-0.11,3.855-0.33,5.266c-0.22,1.409-0.565,2.54-1.035,3.39
				c-0.47,0.851-1.061,1.455-1.77,1.815c-0.71,0.359-1.556,0.539-2.535,0.539c-0.98,0-1.815-0.149-2.505-0.449
				c-0.69-0.301-1.25-0.855-1.68-1.665c-0.43-0.811-0.74-1.92-0.93-3.33S78.041,143.85,78.041,141.63z M81.88,142.38
				c0,1.181,0.02,2.19,0.06,3.03c0.04,0.84,0.12,1.53,0.24,2.07c0.12,0.539,0.294,0.935,0.525,1.185
				c0.229,0.25,0.535,0.375,0.915,0.375c0.36,0,0.66-0.135,0.9-0.405c0.24-0.27,0.425-0.705,0.555-1.305s0.22-1.37,0.27-2.311
				c0.05-0.939,0.075-2.069,0.075-3.39c0-1.3-0.015-2.41-0.045-3.33c-0.03-0.92-0.105-1.665-0.225-2.234
				c-0.12-0.57-0.3-0.985-0.54-1.245c-0.24-0.26-0.56-0.391-0.96-0.391c-0.34,0-0.625,0.141-0.855,0.42
				c-0.23,0.28-0.416,0.73-0.555,1.351c-0.14,0.62-0.235,1.439-0.285,2.46C81.905,139.68,81.88,140.92,81.88,142.38z"/>
			<path fill="#6C7A88" d="M94.06,146.61c0,0.979,0.12,1.7,0.36,2.159c0.24,0.461,0.75,0.69,1.53,0.69
				c0.34,0,0.665-0.034,0.975-0.104c0.31-0.07,0.565-0.155,0.765-0.256v-17.22c0-0.16,0.02-0.279,0.06-0.36
				c0.04-0.079,0.165-0.14,0.375-0.18s0.545-0.064,1.005-0.075c0.459-0.01,1.12-0.015,1.98-0.015v20.16
				c-0.36,0.24-0.99,0.49-1.89,0.75s-1.99,0.39-3.27,0.39c-1.18,0-2.125-0.16-2.835-0.479c-0.71-0.32-1.25-0.755-1.62-1.306
				c-0.37-0.55-0.615-1.189-0.735-1.92c-0.12-0.729-0.18-1.515-0.18-2.354v-14.61c0-0.16,0.02-0.279,0.06-0.36
				c0.04-0.079,0.165-0.14,0.375-0.18s0.55-0.064,1.02-0.075c0.47-0.01,1.145-0.015,2.025-0.015V146.61z"/>
			<path fill="#6C7A88" d="M106.33,131.25c0.94,0,1.775,0.09,2.505,0.27c0.729,0.181,1.339,0.506,1.83,0.976
				s0.865,1.105,1.125,1.905s0.39,1.81,0.39,3.029c0,1.5-0.195,2.695-0.585,3.585c-0.39,0.891-0.896,1.575-1.515,2.056
				c0.24,0.32,0.505,0.725,0.795,1.215c0.29,0.49,0.56,1.08,0.81,1.77c0.25,0.69,0.465,1.496,0.645,2.415
				c0.18,0.921,0.29,1.961,0.33,3.12c0,0.141-0.015,0.261-0.045,0.36c-0.03,0.101-0.105,0.18-0.225,0.24
				c-0.12,0.06-0.295,0.1-0.525,0.119c-0.23,0.021-0.545,0.03-0.945,0.03c-0.581,0-1.24-0.03-1.98-0.09
				c-0.041-1.16-0.125-2.19-0.255-3.09c-0.13-0.9-0.29-1.675-0.48-2.325c-0.19-0.649-0.395-1.194-0.615-1.635
				c-0.22-0.439-0.42-0.79-0.6-1.05h-0.72v7.5c0,0.16-0.02,0.28-0.06,0.359c-0.041,0.08-0.165,0.135-0.375,0.165
				s-0.545,0.051-1.005,0.061s-1.1,0.015-1.92,0.015v-20.4c-0.02-0.119,0-0.22,0.06-0.3c0.08-0.199,0.26-0.3,0.54-0.3H106.33z
				 M108.4,137.25c0-1.08-0.105-1.864-0.315-2.355c-0.21-0.489-0.545-0.734-1.005-0.734h-0.81v6.899h0.6
				c0.24,0,0.45-0.049,0.63-0.149c0.18-0.1,0.34-0.295,0.48-0.585c0.14-0.29,0.245-0.68,0.315-1.17
				C108.365,138.665,108.4,138.03,108.4,137.25z"/>
			<path fill="#6C7A88" d="M118.12,152.25v-20.4c0-0.119,0.03-0.22,0.09-0.3c0.04-0.079,0.094-0.149,0.165-0.21
				c0.07-0.06,0.185-0.09,0.345-0.09h7.2c0,0.68-0.005,1.21-0.015,1.59c-0.01,0.38-0.03,0.665-0.06,0.855s-0.09,0.305-0.18,0.345
				c-0.09,0.04-0.205,0.06-0.345,0.06h-3.84v5.25h3.63c0,0.641-0.005,1.155-0.015,1.545c-0.01,0.391-0.03,0.701-0.06,0.931
				c-0.03,0.229-0.085,0.385-0.165,0.465c-0.08,0.08-0.19,0.12-0.33,0.12h-3.06v9.24c0,0.119-0.02,0.22-0.06,0.3
				c-0.041,0.08-0.09,0.149-0.15,0.21c-0.06,0.06-0.17,0.09-0.33,0.09H118.12z"/>
			<path fill="#6C7A88" d="M126.669,141.63c0-2.04,0.115-3.739,0.345-5.1s0.585-2.455,1.065-3.285c0.48-0.83,1.08-1.415,1.8-1.755
				c0.72-0.34,1.56-0.51,2.52-0.51c0.979,0,1.81,0.16,2.489,0.479c0.68,0.32,1.23,0.88,1.65,1.68c0.42,0.801,0.725,1.881,0.915,3.24
				c0.19,1.36,0.285,3.07,0.285,5.13c0,2.101-0.11,3.855-0.33,5.266c-0.22,1.409-0.565,2.54-1.034,3.39
				c-0.471,0.851-1.061,1.455-1.771,1.815c-0.71,0.359-1.556,0.539-2.535,0.539c-0.98,0-1.815-0.149-2.505-0.449
				c-0.69-0.301-1.25-0.855-1.68-1.665c-0.43-0.811-0.74-1.92-0.93-3.33S126.669,143.85,126.669,141.63z M130.509,142.38
				c0,1.181,0.02,2.19,0.06,3.03c0.04,0.84,0.12,1.53,0.24,2.07c0.12,0.539,0.294,0.935,0.525,1.185
				c0.229,0.25,0.535,0.375,0.915,0.375c0.36,0,0.66-0.135,0.9-0.405c0.24-0.27,0.425-0.705,0.555-1.305s0.22-1.37,0.271-2.311
				c0.049-0.939,0.074-2.069,0.074-3.39c0-1.3-0.015-2.41-0.045-3.33c-0.029-0.92-0.104-1.665-0.225-2.234
				c-0.12-0.57-0.3-0.985-0.54-1.245c-0.24-0.26-0.56-0.391-0.96-0.391c-0.34,0-0.625,0.141-0.855,0.42
				c-0.23,0.28-0.416,0.73-0.555,1.351c-0.14,0.62-0.235,1.439-0.285,2.46C130.534,139.68,130.509,140.92,130.509,142.38z"/>
			<path fill="#6C7A88" d="M138.909,141.63c0-2.04,0.114-3.739,0.345-5.1s0.585-2.455,1.064-3.285c0.48-0.83,1.08-1.415,1.801-1.755
				c0.72-0.34,1.561-0.51,2.52-0.51c0.98,0,1.811,0.16,2.49,0.479c0.68,0.32,1.23,0.88,1.65,1.68c0.42,0.801,0.725,1.881,0.914,3.24
				c0.19,1.36,0.285,3.07,0.285,5.13c0,2.101-0.109,3.855-0.33,5.266c-0.22,1.409-0.564,2.54-1.034,3.39
				c-0.47,0.851-1.061,1.455-1.771,1.815c-0.71,0.359-1.555,0.539-2.535,0.539c-0.979,0-1.814-0.149-2.504-0.449
				c-0.69-0.301-1.251-0.855-1.681-1.665c-0.431-0.811-0.74-1.92-0.931-3.33C139.004,145.665,138.909,143.85,138.909,141.63z
				 M142.749,142.38c0,1.181,0.02,2.19,0.06,3.03c0.041,0.84,0.121,1.53,0.24,2.07c0.12,0.539,0.295,0.935,0.525,1.185
				c0.229,0.25,0.535,0.375,0.915,0.375c0.36,0,0.659-0.135,0.899-0.405c0.24-0.27,0.426-0.705,0.555-1.305
				c0.131-0.6,0.221-1.37,0.271-2.311c0.05-0.939,0.075-2.069,0.075-3.39c0-1.3-0.016-2.41-0.045-3.33
				c-0.03-0.92-0.105-1.665-0.225-2.234c-0.121-0.57-0.301-0.985-0.541-1.245c-0.239-0.26-0.56-0.391-0.959-0.391
				c-0.341,0-0.626,0.141-0.855,0.42c-0.23,0.28-0.416,0.73-0.555,1.351c-0.141,0.62-0.236,1.439-0.285,2.46
				C142.773,139.68,142.749,140.92,142.749,142.38z"/>
			<path fill="#6C7A88" d="M155.169,131.25c0.999,0,1.87,0.13,2.61,0.39c0.739,0.261,1.35,0.74,1.83,1.44
				c0.479,0.7,0.84,1.665,1.08,2.895c0.239,1.23,0.359,2.806,0.359,4.726c0,4-0.45,6.925-1.35,8.774
				c-0.9,1.851-2.36,2.775-4.381,2.775h-3.869v-20.4c0-0.199,0.055-0.35,0.164-0.449c0.11-0.101,0.336-0.15,0.676-0.15H155.169z
				 M157.179,140.34c0-1.34-0.045-2.41-0.135-3.21c-0.091-0.8-0.21-1.41-0.36-1.83s-0.34-0.689-0.57-0.81
				c-0.229-0.12-0.475-0.181-0.734-0.181h-0.57v14.761h0.6c0.24,0,0.466-0.095,0.676-0.285s0.395-0.595,0.555-1.215
				s0.29-1.505,0.391-2.655C157.129,143.766,157.179,142.24,157.179,140.34z"/>
			<path fill="#6C7A88" d="M166.719,132.72c0-0.359,0.02-0.64,0.061-0.84c0.039-0.199,0.169-0.345,0.389-0.435
				c0.221-0.09,0.561-0.146,1.021-0.165s1.11-0.03,1.95-0.03v20.4c0,0.16-0.02,0.28-0.061,0.359c-0.04,0.08-0.164,0.135-0.375,0.165
				c-0.209,0.03-0.55,0.051-1.02,0.061c-0.471,0.01-1.125,0.015-1.965,0.015V132.72z"/>
			<path fill="#6C7A88" d="M176.828,130.95c1.52,0,2.58,0.149,3.181,0.45c0.6,0.3,0.899,0.71,0.899,1.229
				c0,0.28-0.06,0.585-0.18,0.915s-0.32,0.655-0.6,0.975c-0.16-0.119-0.49-0.249-0.99-0.39c-0.5-0.14-1.04-0.21-1.62-0.21
				c-0.74,0-1.319,0.125-1.739,0.375c-0.421,0.25-0.631,0.635-0.631,1.155c0,0.46,0.08,0.885,0.24,1.274
				c0.16,0.391,0.439,0.855,0.84,1.396l2.88,3.689c0.36,0.461,0.655,0.896,0.886,1.306c0.229,0.41,0.414,0.81,0.555,1.2
				c0.14,0.39,0.234,0.779,0.285,1.17c0.049,0.39,0.074,0.795,0.074,1.215c0,0.76-0.08,1.49-0.24,2.189
				c-0.16,0.7-0.445,1.32-0.854,1.86c-0.41,0.54-0.97,0.975-1.68,1.305s-1.604,0.495-2.685,0.495c-1.361,0-2.355-0.205-2.986-0.615
				c-0.629-0.409-0.944-0.874-0.944-1.395c0-0.34,0.06-0.729,0.181-1.17c0.119-0.439,0.309-0.859,0.569-1.26
				c0.319,0.28,0.729,0.515,1.229,0.705c0.5,0.189,1.021,0.284,1.561,0.284c0.84,0,1.414-0.21,1.725-0.63s0.465-0.979,0.465-1.68
				c0-0.52-0.095-1.005-0.285-1.455c-0.189-0.45-0.545-1.024-1.064-1.725l-2.73-3.66c-0.34-0.46-0.619-0.885-0.84-1.275
				c-0.22-0.39-0.39-0.765-0.51-1.125c-0.119-0.359-0.205-0.699-0.255-1.02s-0.075-0.65-0.075-0.99c0-1.36,0.445-2.465,1.336-3.315
				C173.713,131.375,175.049,130.95,176.828,130.95z"/>
		</g>
		<g enable-background="new    ">
			<path fill="#6C7A88" d="M46.5,175.8c0-3.399,0.191-6.232,0.575-8.5c0.383-2.267,0.975-4.091,1.775-5.475
				c0.8-1.383,1.8-2.358,3-2.925c1.2-0.566,2.6-0.851,4.2-0.851c1.633,0,3.017,0.268,4.15,0.8c1.133,0.534,2.05,1.468,2.75,2.801
				c0.7,1.333,1.208,3.133,1.525,5.399c0.316,2.268,0.475,5.117,0.475,8.55c0,3.5-0.184,6.426-0.55,8.775
				c-0.367,2.35-0.942,4.233-1.725,5.65s-1.767,2.425-2.95,3.024c-1.184,0.601-2.592,0.9-4.225,0.9c-1.634,0-3.025-0.25-4.175-0.75
				c-1.15-0.5-2.084-1.425-2.8-2.775c-0.717-1.35-1.233-3.2-1.55-5.55C46.658,182.525,46.5,179.5,46.5,175.8z M52.9,177.05
				c0,1.968,0.033,3.65,0.1,5.05c0.066,1.4,0.2,2.551,0.4,3.45c0.2,0.9,0.492,1.559,0.875,1.976
				c0.383,0.417,0.892,0.625,1.525,0.625c0.6,0,1.1-0.226,1.5-0.676c0.4-0.449,0.708-1.175,0.925-2.175
				c0.216-1,0.366-2.282,0.45-3.85c0.083-1.566,0.125-3.45,0.125-5.65c0-2.166-0.025-4.017-0.075-5.55
				c-0.05-1.533-0.175-2.775-0.375-3.725c-0.2-0.95-0.5-1.642-0.9-2.075c-0.4-0.433-0.934-0.65-1.6-0.65
				c-0.567,0-1.042,0.233-1.425,0.7c-0.383,0.467-0.692,1.217-0.925,2.25c-0.233,1.033-0.392,2.4-0.475,4.1
				C52.941,172.55,52.9,174.617,52.9,177.05z"/>
			<path fill="#6C7A88" d="M76,180.1c-0.267-0.699-0.542-1.491-0.825-2.375c-0.284-0.883-0.55-1.816-0.8-2.8
				c-0.25-0.982-0.484-1.966-0.7-2.95c-0.217-0.982-0.425-1.907-0.625-2.774c0.2,2,0.367,3.992,0.5,5.975
				c0.133,1.983,0.2,3.759,0.2,5.325v12c0,0.268-0.034,0.467-0.1,0.6c-0.067,0.134-0.275,0.226-0.625,0.275s-0.9,0.084-1.65,0.1
				c-0.75,0.018-1.825,0.025-3.225,0.025v-34c0-0.666,0.333-1,1-1h4.45l5.2,13.15c0.267,0.733,0.533,1.524,0.8,2.375
				c0.266,0.85,0.525,1.725,0.775,2.625c0.25,0.899,0.483,1.8,0.7,2.699c0.217,0.9,0.408,1.75,0.575,2.551
				c-0.233-2.066-0.392-3.95-0.475-5.65c-0.083-1.7-0.125-3.4-0.125-5.1V159.5c0-0.232,0.033-0.425,0.1-0.575
				c0.066-0.149,0.275-0.25,0.625-0.3s0.908-0.083,1.675-0.1c0.767-0.017,1.833-0.025,3.2-0.025v34c0,0.667-0.333,1-1,1h-4.35
				L76,180.1z"/>
			<path fill="#6C7A88" d="M98.099,160.95c0-0.601,0.033-1.066,0.1-1.4c0.066-0.333,0.283-0.575,0.65-0.725
				c0.366-0.15,0.933-0.241,1.7-0.275c0.767-0.032,1.85-0.05,3.25-0.05v34c0,0.268-0.034,0.467-0.1,0.6
				c-0.067,0.134-0.275,0.226-0.625,0.275c-0.35,0.05-0.917,0.084-1.7,0.1c-0.784,0.018-1.875,0.025-3.275,0.025V160.95z"/>
			<path fill="#6C7A88" d="M118.249,163.7v28.8c0,0.268-0.034,0.467-0.1,0.6c-0.067,0.134-0.275,0.226-0.625,0.275
				s-0.909,0.084-1.675,0.1c-0.767,0.018-1.833,0.025-3.2,0.025v-29.8h-6.1v-4.2c0-0.666,0.333-1,1-1h17v4.2
				c0,0.399-0.075,0.667-0.225,0.8c-0.15,0.134-0.409,0.2-0.775,0.2H118.249z"/>
			<path fill="#6C7A88" d="M135.447,158c2.533,0,4.301,0.25,5.301,0.75s1.5,1.184,1.5,2.05c0,0.468-0.1,0.976-0.301,1.525
				c-0.199,0.55-0.533,1.092-1,1.625c-0.267-0.2-0.816-0.417-1.649-0.65c-0.833-0.232-1.733-0.35-2.7-0.35
				c-1.233,0-2.199,0.208-2.9,0.625c-0.699,0.417-1.049,1.059-1.049,1.925c0,0.768,0.133,1.475,0.4,2.125
				c0.267,0.65,0.733,1.425,1.399,2.325l4.801,6.149c0.6,0.768,1.092,1.492,1.475,2.176s0.691,1.35,0.926,2
				c0.232,0.649,0.391,1.3,0.475,1.949c0.082,0.65,0.125,1.325,0.125,2.025c0,1.268-0.134,2.483-0.4,3.65
				c-0.268,1.167-0.742,2.199-1.425,3.1c-0.684,0.9-1.617,1.625-2.8,2.175c-1.184,0.55-2.676,0.825-4.475,0.825
				c-2.267,0-3.925-0.342-4.975-1.025c-1.05-0.683-1.575-1.457-1.575-2.324c0-0.566,0.1-1.217,0.3-1.95
				c0.2-0.733,0.516-1.433,0.95-2.101c0.533,0.468,1.217,0.859,2.05,1.176c0.833,0.316,1.7,0.475,2.6,0.475
				c1.4,0,2.357-0.35,2.875-1.05c0.516-0.7,0.775-1.633,0.775-2.8c0-0.867-0.159-1.676-0.476-2.426
				c-0.317-0.75-0.909-1.707-1.774-2.875l-4.551-6.1c-0.567-0.767-1.033-1.475-1.4-2.125c-0.367-0.65-0.65-1.275-0.85-1.875
				c-0.2-0.6-0.342-1.166-0.425-1.7c-0.083-0.532-0.125-1.083-0.125-1.649c0-2.267,0.741-4.108,2.225-5.525
				C130.256,158.709,132.48,158,135.447,158z"/>
			<path fill="#6C7A88" d="M151.848,159.95c-0.1-0.566-0.084-0.95,0.05-1.15c0.133-0.2,0.532-0.3,1.2-0.3h4.699l2.451,16.3
				c0.365,2.5,0.666,4.875,0.899,7.125s0.399,4.209,0.5,5.875h0.399c0.066-2.3,0.209-4.541,0.426-6.725
				c0.217-2.183,0.491-4.275,0.824-6.275l2.15-13.3c0.066-0.533,0.176-0.916,0.325-1.15c0.149-0.232,0.491-0.35,1.024-0.35h3.951
				l2.549,14.8c0.434,2.5,0.75,4.875,0.951,7.125c0.199,2.25,0.365,4.209,0.5,5.875h0.399c0.032-0.899,0.091-1.892,0.175-2.975
				c0.083-1.083,0.176-2.191,0.275-3.325c0.1-1.133,0.207-2.267,0.324-3.4c0.117-1.133,0.258-2.232,0.426-3.3l2.1-14.8
				c0.066-0.533,0.184-0.916,0.35-1.15c0.167-0.232,0.5-0.35,1-0.35h4.851l-5.95,35c-0.566,0.066-1.042,0.116-1.425,0.15
				c-0.384,0.032-0.742,0.066-1.075,0.1c-0.334,0.033-0.684,0.05-1.05,0.05c-0.367,0-0.817,0-1.351,0c-0.867,0-1.533-0.274-2-0.825
				c-0.467-0.55-0.799-1.324-1-2.324l-1.1-5.4c-0.167-0.9-0.334-1.883-0.5-2.95c-0.167-1.066-0.316-2.166-0.449-3.3
				c-0.135-1.133-0.26-2.267-0.375-3.4c-0.117-1.133-0.226-2.199-0.326-3.199c-0.1,1-0.208,2.066-0.324,3.199
				c-0.117,1.134-0.242,2.268-0.375,3.4c-0.134,1.134-0.275,2.233-0.426,3.3c-0.149,1.067-0.291,2.05-0.424,2.95l-1.351,8.25
				c-0.5,0.066-0.942,0.107-1.325,0.125c-0.383,0.017-0.775,0.041-1.175,0.075c-0.399,0.032-0.825,0.05-1.274,0.05
				c-0.451,0-0.976,0-1.576,0c-0.767,0-1.367-0.3-1.799-0.9c-0.434-0.6-0.734-1.332-0.9-2.199c-0.2-1-0.434-2.217-0.7-3.65
				c-0.267-1.433-0.542-2.958-0.825-4.575c-0.283-1.616-0.574-3.3-0.875-5.05c-0.3-1.75-0.584-3.458-0.85-5.125
				C153.214,168.35,152.547,164.25,151.848,159.95z"/>
			<path fill="#6C7A88" d="M197.098,185.55h-6.65l-1.449,7c-0.033,0.167-0.084,0.317-0.15,0.45c-0.066,0.134-0.184,0.242-0.35,0.325
				c-0.168,0.083-0.408,0.149-0.725,0.2c-0.318,0.05-0.76,0.074-1.326,0.074c-0.367,0-0.883-0.017-1.549-0.05
				c-0.668-0.033-1.334-0.083-2-0.149l8.35-33.95c0.133-0.7,0.883-1.05,2.25-1.05c0.467,0,0.933,0.017,1.4,0.05
				c0.466,0.033,0.883,0.083,1.25,0.149l8.35,34c0.066,0.334-0.051,0.584-0.35,0.75c-0.301,0.167-1.018,0.25-2.15,0.25
				c-0.367,0-0.817,0-1.35,0c-0.534,0-1.168-0.033-1.9-0.1L197.098,185.55z M191.498,180.5h4.55l-0.95-4.65
				c-0.268-1.332-0.508-2.841-0.725-4.524c-0.217-1.683-0.408-3.325-0.575-4.925c-0.167,1.6-0.367,3.242-0.601,4.925
				c-0.232,1.684-0.482,3.192-0.75,4.524L191.498,180.5z"/>
			<path fill="#6C7A88" d="M207.898,179.2l-6.25-19.851c-0.067-0.199-0.075-0.357-0.025-0.475c0.051-0.116,0.275-0.2,0.676-0.25
				c0.399-0.05,1.049-0.083,1.949-0.1s2.166-0.025,3.801-0.025l1.449,6.55c0.133,0.601,0.275,1.334,0.426,2.2
				c0.149,0.867,0.282,1.75,0.399,2.65c0.116,0.899,0.226,1.774,0.325,2.625c0.1,0.85,0.183,1.559,0.25,2.125
				c0.033-0.566,0.107-1.275,0.225-2.125c0.117-0.851,0.242-1.733,0.375-2.65c0.133-0.916,0.275-1.808,0.426-2.675
				c0.149-0.866,0.291-1.601,0.424-2.2l1.201-5.5c0.066-0.232,0.149-0.425,0.25-0.575c0.1-0.149,0.341-0.25,0.725-0.3
				c0.383-0.05,0.957-0.083,1.725-0.1c0.767-0.017,1.867-0.025,3.301-0.025l-6.051,20.3v13.7c0,0.268-0.025,0.467-0.074,0.6
				c-0.051,0.134-0.25,0.226-0.601,0.275s-0.899,0.084-1.649,0.1c-0.75,0.018-1.843,0.025-3.275,0.025V179.2z"/>
		</g>
	</g>
</g>
</svg>
