<?xml version="1.0" encoding="utf-8"?>
<!-- Generator: Adobe Illustrator 16.0.3, SVG Export Plug-In . SVG Version: 6.00 Build 0)  -->
<!DOCTYPE svg PUBLIC "-//W3C//DTD SVG 1.1//EN" "http://www.w3.org/Graphics/SVG/1.1/DTD/svg11.dtd">
<svg version="1.1" id="Layer_1" xmlns="http://www.w3.org/2000/svg" xmlns:xlink="http://www.w3.org/1999/xlink" x="0px" y="0px"
	 width="266px" height="266px" viewBox="0 0 266 266" enable-background="new 0 0 266 266" xml:space="preserve">
<title>Searching</title>
<desc>Created with Sketch.</desc>
<g id="Page-1">
	<g id="Searching">
		<circle id="Oval-1-Copy" fill="#D9155D" cx="133" cy="133" r="133"/>
		<g enable-background="new    ">
			<path fill="#EFF2F7" d="M60.5,52.5c2.233,0,3.841,0.225,4.825,0.675c0.983,0.45,1.475,0.959,1.475,1.525
				c0,0.6-0.25,1.149-0.75,1.649c-0.4-0.3-1.059-0.6-1.975-0.899C63.158,55.15,62.033,55,60.7,55c-1.734,0-3.117,0.384-4.15,1.15
				C55.517,56.917,55,57.934,55,59.2c0,1.033,0.258,1.967,0.775,2.8c0.517,0.834,1.175,1.7,1.975,2.6l5.95,6.15
				c1.4,1.5,2.35,2.9,2.85,4.2s0.75,2.767,0.75,4.399c0,1.301-0.159,2.509-0.475,3.625c-0.317,1.117-0.825,2.084-1.525,2.9
				c-0.7,0.817-1.6,1.459-2.7,1.925c-1.1,0.467-2.434,0.7-4,0.7c-1.167,0-2.159-0.092-2.975-0.275
				c-0.817-0.184-1.5-0.407-2.05-0.675c-0.55-0.267-0.95-0.55-1.2-0.85S52,86.117,52,85.85c0-0.332,0.066-0.675,0.2-1.024
				c0.133-0.351,0.333-0.658,0.6-0.925c0.533,0.5,1.241,0.925,2.125,1.274c0.883,0.351,2.041,0.525,3.475,0.525
				c2.167,0,3.708-0.566,4.625-1.7c0.917-1.133,1.375-2.6,1.375-4.4c0-0.699-0.059-1.357-0.175-1.975
				c-0.117-0.616-0.309-1.225-0.575-1.825c-0.267-0.6-0.625-1.208-1.075-1.825C62.125,73.358,61.566,72.7,60.9,72l-5.4-5.65
				c-1.133-1.266-1.983-2.449-2.55-3.55c-0.567-1.1-0.85-2.282-0.85-3.55c0-1.967,0.725-3.583,2.175-4.85
				C55.725,53.134,57.8,52.5,60.5,52.5z"/>
			<path fill="#EFF2F7" d="M84.199,85.45c0,1.167-0.025,1.884-0.075,2.149c-0.05,0.268-0.225,0.4-0.525,0.4h-11.95V53.7
				c0-0.101,0.033-0.217,0.1-0.351c0.066-0.066,0.133-0.141,0.2-0.225C72.016,53.042,72.132,53,72.299,53h11.95
				c0,1.134-0.018,1.842-0.05,2.125c-0.034,0.283-0.184,0.425-0.45,0.425h-9.4V67.6h8.8c0,1.067-0.025,1.759-0.075,2.075
				c-0.05,0.317-0.225,0.476-0.525,0.476h-8.2v15.3H84.199z"/>
			<path fill="#EFF2F7" d="M101.749,78.35h-10.4l-2.3,9.101c-0.067,0.267-0.184,0.434-0.35,0.5c-0.167,0.066-0.5,0.1-1,0.1
				c-0.167,0-0.4,0-0.7,0c-0.3,0-0.634-0.033-1-0.1l9.45-34.7c0.033-0.3,0.35-0.45,0.95-0.45c0.5,0,0.9,0.05,1.2,0.15l9.45,34.399
				c0.066,0.268,0.025,0.45-0.125,0.551c-0.15,0.1-0.492,0.149-1.025,0.149c-0.167,0-0.392,0-0.675,0
				c-0.284,0-0.609-0.017-0.975-0.05L101.749,78.35z M91.999,75.8h9.05l-2.4-9.25c-0.267-0.966-0.517-1.941-0.75-2.925
				c-0.233-0.982-0.442-1.908-0.625-2.775c-0.184-0.866-0.342-1.649-0.475-2.35c-0.133-0.7-0.217-1.283-0.25-1.75
				c-0.067,0.467-0.159,1.05-0.275,1.75c-0.117,0.7-0.275,1.483-0.475,2.35c-0.2,0.867-0.417,1.793-0.65,2.775
				c-0.233,0.983-0.483,1.959-0.75,2.925L91.999,75.8z"/>
			<path fill="#EFF2F7" d="M110.199,53.7c0-0.101,0.033-0.217,0.1-0.351c0.066-0.066,0.133-0.141,0.2-0.225
				c0.066-0.083,0.183-0.125,0.35-0.125h5.2c3.133,0,5.375,0.85,6.725,2.55c1.35,1.7,2.025,4.018,2.025,6.95
				c0,2.834-0.458,5.05-1.375,6.65c-0.917,1.6-2.175,2.733-3.775,3.399c0.366,0.468,0.8,1.125,1.3,1.976c0.5,0.85,1,1.883,1.5,3.1
				s0.958,2.625,1.375,4.225c0.417,1.601,0.708,3.4,0.875,5.4c0.033,0.3-0.025,0.5-0.175,0.6c-0.15,0.101-0.542,0.167-1.175,0.2
				c-0.2,0-0.425,0-0.675,0s-0.542-0.017-0.875-0.05c-0.234-2.267-0.567-4.25-1-5.95c-0.434-1.7-0.892-3.149-1.375-4.35
				c-0.484-1.2-0.95-2.167-1.4-2.9c-0.45-0.732-0.809-1.282-1.075-1.649c-0.167,0.033-0.35,0.05-0.55,0.05c-0.2,0-0.384,0-0.55,0
				h-2.95V87.35c0,0.168-0.018,0.293-0.05,0.375c-0.034,0.084-0.133,0.15-0.3,0.2c-0.167,0.05-0.434,0.075-0.8,0.075
				c-0.367,0-0.883,0-1.55,0V53.7z M121.799,62.4c0-1-0.083-1.917-0.25-2.75c-0.167-0.833-0.467-1.559-0.9-2.176
				c-0.434-0.616-1-1.1-1.7-1.449c-0.7-0.351-1.583-0.525-2.65-0.525h-3.4v15.1h3.15C119.881,70.6,121.799,67.867,121.799,62.4z"/>
			<path fill="#EFF2F7" d="M137.799,52.6c1.633,0,2.816,0.293,3.551,0.875c0.732,0.584,1.1,1.125,1.1,1.625
				c0,0.334-0.051,0.65-0.15,0.95s-0.217,0.55-0.35,0.75c-0.1-0.1-0.268-0.232-0.5-0.399c-0.234-0.167-0.509-0.333-0.825-0.5
				c-0.317-0.167-0.684-0.316-1.101-0.45c-0.416-0.133-0.857-0.2-1.324-0.2c-0.867,0-1.734,0.184-2.6,0.55
				c-0.867,0.367-1.643,1.125-2.326,2.275c-0.684,1.149-1.242,2.85-1.675,5.1c-0.434,2.25-0.65,5.259-0.65,9.025
				c0,2.867,0.167,5.175,0.5,6.925c0.333,1.75,0.775,3.1,1.325,4.05s1.183,1.559,1.9,1.825c0.717,0.268,1.458,0.4,2.225,0.4
				c1.167,0,2.217-0.242,3.15-0.726c0.934-0.482,1.617-0.975,2.051-1.475c0.133,0.233,0.25,0.5,0.35,0.8s0.15,0.617,0.15,0.95
				c0,0.399-0.159,0.8-0.476,1.2c-0.317,0.399-0.75,0.767-1.3,1.1c-0.551,0.334-1.2,0.608-1.95,0.825
				c-0.75,0.216-1.575,0.325-2.476,0.325c-1,0-2-0.125-3-0.375c-1-0.25-1.892-0.926-2.675-2.025c-0.784-1.1-1.417-2.741-1.9-4.925
				c-0.483-2.183-0.725-5.158-0.725-8.925c0-4.4,0.3-7.9,0.9-10.5c0.6-2.601,1.366-4.559,2.3-5.875
				c0.933-1.316,1.975-2.176,3.125-2.575C135.574,52.8,136.699,52.6,137.799,52.6z"/>
			<path fill="#EFF2F7" d="M159.898,70.25h-10.6v17.1c0,0.168-0.018,0.293-0.05,0.375c-0.034,0.084-0.134,0.15-0.3,0.2
				c-0.168,0.05-0.434,0.075-0.801,0.075s-0.899,0-1.6,0V53.7c0-0.167,0.017-0.3,0.05-0.4c0.033-0.1,0.133-0.175,0.3-0.225
				S147.332,53,147.699,53c0.366,0,0.899,0,1.6,0v14.65h10.6V53.7c0-0.167,0.008-0.292,0.025-0.375c0.017-0.083,0.116-0.15,0.3-0.2
				c0.183-0.05,0.458-0.083,0.825-0.1c0.366-0.017,0.9-0.025,1.6-0.025v34.35c0,0.168-0.017,0.293-0.05,0.375
				c-0.033,0.084-0.134,0.15-0.3,0.2c-0.167,0.05-0.434,0.075-0.8,0.075c-0.367,0-0.9,0-1.601,0V70.25z"/>
			<path fill="#EFF2F7" d="M168.099,54.4c0-0.333,0.017-0.601,0.05-0.801c0.033-0.199,0.142-0.341,0.325-0.425
				c0.183-0.083,0.466-0.133,0.85-0.149c0.383-0.017,0.908-0.025,1.575-0.025v34.35c0,0.168-0.018,0.293-0.05,0.375
				c-0.034,0.084-0.143,0.15-0.325,0.2c-0.184,0.05-0.459,0.075-0.825,0.075c-0.367,0-0.899,0-1.6,0V54.4z"/>
			<path fill="#EFF2F7" d="M184.998,73.95c-0.1-0.233-0.283-0.675-0.551-1.325c-0.267-0.65-0.574-1.441-0.924-2.375
				c-0.351-0.933-0.742-1.95-1.176-3.05c-0.434-1.101-0.858-2.191-1.275-3.275c-0.416-1.083-0.816-2.116-1.199-3.1
				c-0.384-0.983-0.709-1.825-0.975-2.525c0,0.634,0.008,1.459,0.024,2.476s0.032,2.117,0.05,3.3
				c0.017,1.184,0.033,2.392,0.051,3.625c0.016,1.233,0.032,2.367,0.049,3.399c0.018,1.034,0.025,1.918,0.025,2.65
				c0,0.733,0,1.184,0,1.35v12.25c0,0.168-0.018,0.293-0.05,0.375c-0.034,0.084-0.134,0.15-0.3,0.2
				c-0.168,0.05-0.434,0.075-0.801,0.075s-0.883,0-1.549,0V53.7c0-0.467,0.216-0.7,0.649-0.7h1.95l6,13.8
				c0.1,0.268,0.283,0.75,0.55,1.45s0.591,1.533,0.976,2.5c0.383,0.967,0.791,2.009,1.225,3.125c0.433,1.117,0.866,2.217,1.3,3.3
				c0.433,1.084,0.833,2.101,1.2,3.05c0.366,0.95,0.683,1.742,0.949,2.375c-0.033-0.5-0.066-1.241-0.1-2.225
				c-0.033-0.982-0.059-2.075-0.074-3.275c-0.018-1.199-0.025-2.433-0.025-3.699s-0.009-2.45-0.025-3.551
				c-0.018-1.1-0.025-2.041-0.025-2.824s0-1.275,0-1.476V53.7c0-0.167,0.018-0.3,0.051-0.4c0.033-0.1,0.133-0.175,0.3-0.225
				S191.739,53,192.123,53c0.383,0,0.908,0,1.574,0v34.35c0,0.434-0.217,0.65-0.649,0.65h-1.899L184.998,73.95z"/>
			<path fill="#EFF2F7" d="M208.798,52.5c1.532,0,2.792,0.233,3.774,0.7c0.983,0.467,1.476,1,1.476,1.6
				c0,0.534-0.134,1.101-0.399,1.7c-0.534-0.4-1.15-0.725-1.851-0.975s-1.534-0.375-2.5-0.375c-1.3,0-2.458,0.233-3.476,0.699
				c-1.017,0.468-1.867,1.293-2.549,2.476c-0.684,1.184-1.209,2.792-1.576,4.825s-0.549,4.617-0.549,7.75
				c0,3.3,0.166,5.934,0.5,7.899c0.332,1.968,0.791,3.468,1.375,4.5c0.582,1.034,1.274,1.709,2.074,2.025
				c0.801,0.317,1.666,0.475,2.6,0.475c1.201,0,2.143-0.232,2.826-0.7c0.682-0.466,1.107-0.866,1.274-1.199V70.45h-4.899v-1.7
				c0-0.433,0.25-0.65,0.75-0.65h6.75V85.7c-0.201,0.2-0.476,0.458-0.826,0.774c-0.35,0.317-0.799,0.625-1.35,0.926
				c-0.55,0.3-1.209,0.559-1.975,0.774c-0.768,0.217-1.65,0.325-2.65,0.325c-1.467,0-2.783-0.225-3.949-0.675
				c-1.168-0.45-2.15-1.308-2.951-2.575c-0.799-1.267-1.408-3.033-1.824-5.3c-0.418-2.267-0.625-5.233-0.625-8.9
				c0-3.833,0.25-6.958,0.75-9.375c0.5-2.416,1.217-4.3,2.15-5.649c0.932-1.351,2.049-2.275,3.35-2.775
				C205.798,52.75,207.23,52.5,208.798,52.5z"/>
		</g>
		<g enable-background="new    ">
			<path fill="#EFF2F7" d="M86.625,214.5v-34c0-0.2,0.05-0.366,0.15-0.5c0.066-0.133,0.158-0.25,0.275-0.35
				c0.117-0.101,0.308-0.15,0.575-0.15h12c0,1.134-0.009,2.018-0.025,2.65c-0.017,0.633-0.05,1.108-0.1,1.425
				c-0.05,0.317-0.15,0.509-0.3,0.575c-0.15,0.066-0.342,0.1-0.575,0.1h-6.4V193h6.05c0,1.067-0.008,1.925-0.025,2.575
				c-0.017,0.649-0.05,1.167-0.1,1.55c-0.05,0.384-0.142,0.643-0.275,0.775c-0.134,0.133-0.317,0.199-0.55,0.199h-5.1v15.4
				c0,0.2-0.034,0.367-0.1,0.5c-0.067,0.134-0.15,0.25-0.25,0.35c-0.1,0.101-0.284,0.15-0.55,0.15H86.625z"/>
			<path fill="#EFF2F7" d="M107.075,179.5c1.566,0,2.958,0.15,4.175,0.45c1.216,0.3,2.233,0.842,3.05,1.625
				c0.816,0.783,1.441,1.842,1.875,3.175c0.433,1.334,0.65,3.018,0.65,5.05c0,2.5-0.325,4.492-0.975,5.976s-1.492,2.625-2.525,3.425
				c0.4,0.533,0.841,1.208,1.325,2.024c0.483,0.817,0.933,1.801,1.35,2.95c0.417,1.15,0.775,2.492,1.075,4.025
				c0.3,1.533,0.482,3.267,0.55,5.2c0,0.233-0.025,0.434-0.075,0.6c-0.05,0.167-0.175,0.3-0.375,0.4
				c-0.2,0.1-0.492,0.166-0.875,0.199c-0.383,0.033-0.908,0.051-1.575,0.051c-0.967,0-2.067-0.051-3.3-0.15
				c-0.067-1.933-0.208-3.65-0.425-5.15c-0.217-1.5-0.483-2.791-0.8-3.875c-0.317-1.082-0.659-1.991-1.025-2.725
				c-0.367-0.732-0.7-1.316-1-1.75h-1.2v12.5c0,0.268-0.034,0.467-0.1,0.6c-0.067,0.134-0.275,0.226-0.625,0.275
				s-0.909,0.084-1.675,0.1c-0.768,0.018-1.834,0.025-3.2,0.025v-34c-0.034-0.2,0-0.366,0.1-0.5c0.133-0.333,0.433-0.5,0.9-0.5
				H107.075z M110.525,189.5c0-1.8-0.175-3.107-0.525-3.925c-0.35-0.816-0.909-1.226-1.675-1.226h-1.35v11.5h1
				c0.4,0,0.75-0.082,1.05-0.25c0.3-0.166,0.566-0.491,0.8-0.975c0.232-0.482,0.408-1.133,0.525-1.95
				C110.466,191.858,110.525,190.8,110.525,189.5z"/>
			<path fill="#EFF2F7" d="M119.675,181.95c0-0.601,0.033-1.066,0.1-1.4c0.066-0.333,0.283-0.575,0.65-0.725
				c0.366-0.15,0.933-0.241,1.7-0.275c0.767-0.032,1.85-0.05,3.25-0.05v34c0,0.268-0.034,0.467-0.1,0.6
				c-0.067,0.134-0.275,0.226-0.625,0.275c-0.35,0.05-0.917,0.084-1.7,0.1c-0.784,0.018-1.875,0.025-3.275,0.025V181.95z"/>
			<path fill="#EFF2F7" d="M141.023,209.5c0,1.167-0.008,2.084-0.024,2.75c-0.017,0.667-0.05,1.167-0.101,1.5
				c-0.049,0.334-0.149,0.542-0.299,0.625c-0.15,0.084-0.343,0.125-0.576,0.125h-11.649v-34c0-0.2,0.05-0.366,0.15-0.5
				c0.066-0.133,0.158-0.25,0.275-0.35c0.117-0.101,0.308-0.15,0.575-0.15h12c0,1.134-0.009,2.025-0.024,2.675
				c-0.018,0.65-0.051,1.15-0.101,1.5c-0.05,0.351-0.149,0.575-0.3,0.675c-0.15,0.101-0.342,0.15-0.575,0.15h-6.399v8.5h6.049
				c0,1.067-0.008,1.925-0.024,2.575c-0.017,0.649-0.05,1.167-0.101,1.55c-0.049,0.384-0.142,0.643-0.274,0.775
				c-0.134,0.133-0.317,0.199-0.55,0.199h-5.1v11.4H141.023z"/>
			<path fill="#EFF2F7" d="M151.223,201.1c-0.267-0.699-0.542-1.491-0.824-2.375c-0.284-0.883-0.551-1.816-0.801-2.8
				c-0.25-0.982-0.483-1.966-0.699-2.95c-0.218-0.982-0.426-1.907-0.625-2.774c0.199,2,0.366,3.992,0.5,5.975
				c0.133,1.983,0.199,3.759,0.199,5.325v12c0,0.268-0.033,0.467-0.1,0.6c-0.067,0.134-0.275,0.226-0.625,0.275s-0.9,0.084-1.65,0.1
				c-0.75,0.018-1.824,0.025-3.225,0.025v-34c0-0.666,0.333-1,1-1h4.45l5.2,13.15c0.266,0.733,0.532,1.524,0.8,2.375
				c0.267,0.85,0.524,1.725,0.774,2.625c0.25,0.899,0.483,1.8,0.7,2.699c0.217,0.9,0.408,1.75,0.575,2.551
				c-0.233-2.066-0.393-3.95-0.475-5.65c-0.084-1.7-0.125-3.4-0.125-5.1V180.5c0-0.232,0.032-0.425,0.1-0.575
				c0.066-0.149,0.275-0.25,0.625-0.3s0.908-0.083,1.675-0.1s1.833-0.025,3.2-0.025v34c0,0.667-0.334,1-1,1h-4.35L151.223,201.1z"/>
			<path fill="#EFF2F7" d="M171.073,179.5c1.666,0,3.116,0.217,4.35,0.65s2.25,1.233,3.05,2.399c0.801,1.167,1.4,2.775,1.801,4.825
				c0.399,2.05,0.6,4.675,0.6,7.875c0,6.667-0.75,11.542-2.25,14.625c-1.5,3.084-3.934,4.625-7.3,4.625h-6.45v-34
				c0-0.333,0.092-0.583,0.275-0.75c0.183-0.166,0.558-0.25,1.125-0.25H171.073z M174.423,194.65c0-2.233-0.075-4.017-0.225-5.351
				c-0.15-1.333-0.351-2.35-0.601-3.05s-0.566-1.15-0.949-1.35c-0.384-0.2-0.793-0.301-1.226-0.301h-0.95V209.2h1
				c0.4,0,0.775-0.158,1.125-0.476c0.351-0.316,0.658-0.991,0.926-2.024c0.266-1.033,0.482-2.508,0.649-4.425
				S174.423,197.817,174.423,194.65z"/>
		</g>
		<g enable-background="new    ">
			<path fill="#EFF2F7" d="M104.995,115.5V95.1c0-0.119,0.03-0.22,0.09-0.3c0.04-0.079,0.094-0.149,0.165-0.21
				c0.07-0.06,0.185-0.09,0.345-0.09h7.2c0,0.68-0.005,1.21-0.015,1.59c-0.01,0.38-0.03,0.665-0.06,0.855s-0.09,0.305-0.18,0.345
				c-0.09,0.04-0.205,0.06-0.345,0.06h-3.84v5.25h3.63c0,0.641-0.005,1.155-0.015,1.545c-0.01,0.391-0.03,0.701-0.06,0.931
				c-0.03,0.229-0.085,0.385-0.165,0.465c-0.08,0.08-0.19,0.12-0.33,0.12h-3.06v9.24c0,0.119-0.02,0.22-0.06,0.3
				c-0.041,0.08-0.09,0.149-0.15,0.21c-0.06,0.06-0.17,0.09-0.33,0.09H104.995z"/>
			<path fill="#EFF2F7" d="M113.545,104.88c0-2.04,0.115-3.739,0.345-5.1s0.585-2.455,1.065-3.285c0.48-0.83,1.08-1.415,1.8-1.755
				c0.72-0.34,1.56-0.51,2.52-0.51c0.979,0,1.81,0.16,2.49,0.479c0.68,0.32,1.23,0.88,1.65,1.68c0.42,0.801,0.725,1.881,0.915,3.24
				c0.19,1.36,0.285,3.07,0.285,5.13c0,2.101-0.11,3.855-0.33,5.266c-0.22,1.409-0.565,2.54-1.035,3.39
				c-0.47,0.851-1.061,1.455-1.77,1.815c-0.71,0.359-1.556,0.539-2.535,0.539c-0.98,0-1.815-0.149-2.505-0.449
				c-0.69-0.301-1.25-0.855-1.68-1.665c-0.43-0.811-0.74-1.92-0.93-3.33S113.545,107.1,113.545,104.88z M117.385,105.63
				c0,1.181,0.02,2.19,0.06,3.03c0.04,0.84,0.12,1.53,0.24,2.07c0.12,0.539,0.294,0.935,0.525,1.185
				c0.229,0.25,0.535,0.375,0.915,0.375c0.36,0,0.66-0.135,0.9-0.405c0.24-0.27,0.425-0.705,0.555-1.305s0.22-1.37,0.27-2.311
				c0.05-0.939,0.075-2.069,0.075-3.39c0-1.3-0.015-2.41-0.045-3.33c-0.03-0.92-0.105-1.665-0.225-2.234
				c-0.12-0.57-0.3-0.985-0.54-1.245c-0.24-0.26-0.56-0.391-0.96-0.391c-0.34,0-0.625,0.141-0.855,0.42
				c-0.23,0.28-0.416,0.73-0.555,1.351c-0.14,0.62-0.235,1.439-0.285,2.46C117.41,102.93,117.385,104.17,117.385,105.63z"/>
			<path fill="#EFF2F7" d="M129.505,94.5c0.94,0,1.775,0.09,2.505,0.27c0.729,0.181,1.339,0.506,1.83,0.976s0.865,1.105,1.125,1.905
				s0.391,1.81,0.391,3.029c0,1.5-0.195,2.695-0.586,3.585c-0.39,0.891-0.895,1.575-1.515,2.056c0.24,0.32,0.505,0.725,0.796,1.215
				c0.289,0.49,0.559,1.08,0.809,1.77c0.25,0.69,0.466,1.496,0.646,2.415c0.181,0.921,0.29,1.961,0.33,3.12
				c0,0.141-0.015,0.261-0.045,0.36c-0.03,0.101-0.104,0.18-0.226,0.24c-0.119,0.06-0.295,0.1-0.524,0.119
				c-0.229,0.021-0.545,0.03-0.944,0.03c-0.581,0-1.241-0.03-1.98-0.09c-0.041-1.16-0.125-2.19-0.255-3.09
				c-0.13-0.9-0.29-1.675-0.48-2.325c-0.19-0.649-0.395-1.194-0.615-1.635c-0.22-0.439-0.42-0.79-0.6-1.05h-0.72v7.5
				c0,0.16-0.02,0.28-0.06,0.359c-0.041,0.08-0.165,0.135-0.375,0.165s-0.545,0.051-1.005,0.061s-1.1,0.015-1.92,0.015V95.1
				c-0.02-0.119,0-0.22,0.06-0.3c0.08-0.199,0.26-0.3,0.54-0.3H129.505z M131.575,100.5c0-1.08-0.105-1.864-0.315-2.355
				c-0.21-0.489-0.545-0.734-1.005-0.734h-0.81v6.899h0.6c0.24,0,0.45-0.049,0.63-0.149c0.18-0.1,0.34-0.295,0.48-0.585
				c0.14-0.29,0.245-0.68,0.315-1.17C131.54,101.915,131.575,101.28,131.575,100.5z"/>
			<path fill="#EFF2F7" d="M148.975,110.73h-3.99l-0.869,4.199c-0.021,0.101-0.051,0.19-0.091,0.271s-0.11,0.146-0.21,0.194
				c-0.1,0.051-0.245,0.091-0.436,0.12c-0.189,0.03-0.455,0.045-0.795,0.045c-0.22,0-0.529-0.01-0.93-0.029
				c-0.4-0.021-0.8-0.05-1.199-0.09l5.01-20.37c0.08-0.42,0.529-0.63,1.35-0.63c0.279,0,0.56,0.01,0.84,0.029
				c0.28,0.021,0.529,0.051,0.75,0.09l5.01,20.4c0.041,0.2-0.029,0.351-0.209,0.45c-0.181,0.1-0.611,0.149-1.291,0.149
				c-0.22,0-0.49,0-0.81,0c-0.32,0-0.7-0.02-1.14-0.06L148.975,110.73z M145.615,107.7h2.729l-0.57-2.79
				c-0.16-0.8-0.306-1.705-0.435-2.715c-0.131-1.01-0.246-1.995-0.346-2.955c-0.1,0.96-0.22,1.945-0.359,2.955
				c-0.141,1.01-0.291,1.915-0.45,2.715L145.615,107.7z"/>
		</g>
		<g enable-background="new    ">
			<path fill="#EFF2F7" d="M50.582,125.686l11.743-2.031c-2.113,8.098-3.824,15.474-5.134,22.129l5.26-1.113l3.237-18.984
				l11.744-2.031c-4.486,17.309-7.322,32.014-8.506,44.116l-10.918,2.793l2.92-17.266c-1.185,0.254-2.983,0.635-5.396,1.143
				c-0.804,5.205-1.375,9.648-1.714,13.33l-10.918,2.793L50.582,125.686z"/>
			<path fill="#EFF2F7" d="M87.861,135.122c-0.338,1.231-0.634,2.44-0.887,3.629l-0.697,3.502l10.156-2.158l-0.57,8.763
				c-4.814,0.847-8.593,1.587-11.337,2.222c-0.168,0.847-0.316,1.694-0.443,2.54l-0.475,2.473l11.811-1.715l-0.825,11.807
				c-6.094,0.508-13.817,1.968-23.169,4.38l7.555-45.513l21.142-3.112l-0.829,11.793C95.142,134.111,91.333,134.574,87.861,135.122z
				"/>
			<path fill="#EFF2F7" d="M104.008,125.686l10.918-2.031c-3.047,11.723-5.396,22.534-7.046,32.437l11.172-1.714l-0.952,11.807
				c-5.755,0.508-13.055,1.968-21.899,4.38L104.008,125.686z"/>
			<path fill="#EFF2F7" d="M125.675,125.622c6.559-1.988,11.934-2.983,16.124-2.983c5.713,0,8.526,1.989,8.441,5.967
				c-0.127,7.998-6.855,16.271-20.185,24.819c-0.931,5.163-1.609,9.945-2.031,14.346l-10.093,2.793
				c0.127-0.931,0.635-3.766,1.523-8.506l2.793-15.044C124.744,133.176,125.887,126.046,125.675,125.622z M133.674,135.778
				c-0.297,1.186-0.572,2.37-0.826,3.555l-0.698,3.491c3.936-1.946,6.475-3.999,7.618-6.157c0.168-0.338,0.254-0.613,0.254-0.825
				c0-0.719-0.53-1.079-1.588-1.079C137.418,134.763,135.832,135.102,133.674,135.778z"/>
			<path fill="#EFF2F7" d="M158.637,135.114c-0.293,1.184-0.545,2.345-0.754,3.485l-0.756,3.424l11.1-2.321l-0.572,8.898
				c-4.348,0.679-8.441,1.463-12.282,2.353c-1.02,5.667-1.827,11.271-2.422,16.812l-10.876,2.799l7.428-45.513l21.707-3.047
				l-0.76,11.708C166.216,134.095,162.278,134.562,158.637,135.114z"/>
			<path fill="#EFF2F7" d="M175.039,125.686l10.854-2.031c-2.92,11.088-5.078,21.032-6.475,29.834l6.03-2.539l4.443-25.264
				l10.854-2.031c-4.401,17.351-7.259,32.056-8.569,44.116l-10.156,2.793l1.27-7.046c-3.555,1.566-8.93,3.915-16.123,7.046
				L175.039,125.686z"/>
		</g>
		<g enable-background="new    ">
			<path fill="#EFF2F7" d="M203.697,125.686l10.918-2.031c-3.047,11.723-5.395,22.534-7.045,32.437l11.172-1.714l-0.953,11.807
				c-5.755,0.508-13.055,1.968-21.898,4.38L203.697,125.686z"/>
		</g>
	</g>
</g>
</svg>
