<?xml version="1.0" encoding="utf-8"?>
<!-- Generator: Adobe Illustrator 16.0.3, SVG Export Plug-In . SVG Version: 6.00 Build 0)  -->
<!DOCTYPE svg PUBLIC "-//W3C//DTD SVG 1.1//EN" "http://www.w3.org/Graphics/SVG/1.1/DTD/svg11.dtd">
<svg version="1.1" id="Layer_1" xmlns="http://www.w3.org/2000/svg" xmlns:xlink="http://www.w3.org/1999/xlink" x="0px" y="0px"
	 width="246px" height="52px" viewBox="0 0 246 52" enable-background="new 0 0 246 52" xml:space="preserve">
<title>Searching</title>
<desc>Created with Sketch.</desc>
<g id="Page-1">
	<g id="Searching">
		<rect id="Rectangle-2-Copy-10" fill="#2FFAF5" width="246" height="52"/>
		<g enable-background="new    ">
			<path fill="#6C7A88" d="M60.7,15.344c1.045,0,1.802,0.188,2.272,0.561c0.469,0.373,0.704,0.72,0.704,1.04
				c0,0.213-0.032,0.416-0.096,0.607c-0.064,0.192-0.139,0.353-0.224,0.48c-0.064-0.064-0.171-0.149-0.32-0.256
				c-0.149-0.106-0.326-0.213-0.528-0.32c-0.203-0.106-0.438-0.202-0.704-0.288c-0.267-0.085-0.549-0.128-0.848-0.128
				c-0.555,0-1.109,0.117-1.664,0.352c-0.555,0.235-1.051,0.721-1.488,1.456c-0.438,0.736-0.795,1.824-1.072,3.265
				c-0.277,1.439-0.416,3.365-0.416,5.775c0,1.835,0.107,3.312,0.32,4.433c0.213,1.12,0.496,1.983,0.848,2.592
				c0.352,0.607,0.757,0.997,1.216,1.168c0.458,0.171,0.933,0.256,1.424,0.256c0.747,0,1.418-0.154,2.016-0.464
				c0.597-0.309,1.035-0.624,1.312-0.944c0.085,0.149,0.16,0.32,0.224,0.513c0.064,0.191,0.096,0.395,0.096,0.607
				c0,0.256-0.102,0.512-0.304,0.769c-0.203,0.256-0.48,0.49-0.832,0.703c-0.352,0.214-0.768,0.39-1.248,0.528
				s-1.008,0.208-1.584,0.208c-0.64,0-1.28-0.08-1.92-0.24c-0.64-0.159-1.211-0.592-1.712-1.296
				c-0.502-0.704-0.907-1.754-1.216-3.151c-0.31-1.397-0.464-3.302-0.464-5.712c0-2.816,0.192-5.057,0.576-6.721
				c0.384-1.664,0.875-2.917,1.472-3.76s1.264-1.392,2-1.648C59.276,15.472,59.996,15.344,60.7,15.344z"/>
			<path fill="#6C7A88" d="M74.844,31.824h-6.656l-1.472,5.824c-0.043,0.171-0.117,0.277-0.224,0.319
				c-0.107,0.043-0.32,0.064-0.64,0.064c-0.107,0-0.256,0-0.448,0c-0.192,0-0.405-0.021-0.64-0.064l6.048-22.208
				c0.021-0.191,0.224-0.288,0.608-0.288c0.32,0,0.576,0.032,0.768,0.097l6.048,22.016c0.042,0.171,0.016,0.288-0.08,0.352
				C78.06,38,77.841,38.032,77.5,38.032c-0.107,0-0.251,0-0.432,0S76.679,38.021,76.444,38L74.844,31.824z M68.604,30.192h5.792
				l-1.536-5.92c-0.171-0.619-0.331-1.243-0.48-1.872c-0.149-0.629-0.283-1.222-0.4-1.776c-0.118-0.555-0.219-1.056-0.304-1.504
				c-0.086-0.448-0.139-0.821-0.16-1.12c-0.043,0.299-0.102,0.672-0.176,1.12s-0.176,0.949-0.304,1.504s-0.267,1.147-0.416,1.776
				c-0.149,0.629-0.31,1.253-0.48,1.872L68.604,30.192z"/>
			<path fill="#6C7A88" d="M85.756,29.008c-0.064-0.148-0.182-0.432-0.352-0.848c-0.171-0.416-0.368-0.923-0.592-1.521
				c-0.224-0.597-0.475-1.248-0.752-1.951c-0.277-0.704-0.549-1.403-0.816-2.097c-0.267-0.692-0.523-1.354-0.768-1.983
				c-0.246-0.63-0.454-1.168-0.624-1.616c0,0.405,0.005,0.934,0.016,1.584s0.021,1.354,0.032,2.112
				c0.01,0.757,0.021,1.53,0.032,2.319c0.011,0.79,0.021,1.516,0.032,2.176c0.01,0.662,0.016,1.228,0.016,1.696
				c0,0.47,0,0.758,0,0.864v7.84c0,0.107-0.011,0.188-0.032,0.24c-0.021,0.054-0.085,0.096-0.192,0.128
				C81.649,37.984,81.478,38,81.244,38c-0.235,0-0.565,0-0.992,0V16.048c0-0.299,0.139-0.448,0.416-0.448h1.248l3.84,8.832
				c0.064,0.171,0.181,0.48,0.352,0.929c0.17,0.447,0.378,0.981,0.624,1.6c0.245,0.619,0.506,1.285,0.784,2
				c0.277,0.715,0.555,1.419,0.832,2.112c0.277,0.693,0.533,1.344,0.768,1.952c0.234,0.607,0.437,1.114,0.608,1.52
				c-0.021-0.32-0.043-0.795-0.064-1.424c-0.021-0.629-0.038-1.328-0.048-2.096c-0.011-0.769-0.016-1.558-0.016-2.368
				s-0.005-1.568-0.016-2.272s-0.016-1.307-0.016-1.808s0-0.816,0-0.944v-7.584c0-0.106,0.011-0.191,0.032-0.256
				c0.021-0.064,0.085-0.112,0.192-0.144c0.106-0.032,0.283-0.049,0.528-0.049c0.245,0,0.581,0,1.008,0v21.984
				c0,0.277-0.139,0.416-0.416,0.416h-1.216L85.756,29.008z"/>
			<path fill="#6C7A88" d="M100.54,15.344c1.045,0,1.802,0.188,2.272,0.561c0.469,0.373,0.704,0.72,0.704,1.04
				c0,0.213-0.032,0.416-0.096,0.607c-0.064,0.192-0.139,0.353-0.224,0.48c-0.064-0.064-0.171-0.149-0.32-0.256
				c-0.149-0.106-0.326-0.213-0.528-0.32c-0.203-0.106-0.438-0.202-0.704-0.288c-0.267-0.085-0.549-0.128-0.848-0.128
				c-0.555,0-1.109,0.117-1.664,0.352c-0.555,0.235-1.051,0.721-1.488,1.456c-0.438,0.736-0.795,1.824-1.072,3.265
				c-0.277,1.439-0.416,3.365-0.416,5.775c0,1.835,0.107,3.312,0.32,4.433c0.213,1.12,0.496,1.983,0.848,2.592
				c0.352,0.607,0.757,0.997,1.216,1.168c0.458,0.171,0.933,0.256,1.424,0.256c0.747,0,1.418-0.154,2.016-0.464
				c0.597-0.309,1.035-0.624,1.312-0.944c0.085,0.149,0.16,0.32,0.224,0.513c0.064,0.191,0.096,0.395,0.096,0.607
				c0,0.256-0.102,0.512-0.304,0.769c-0.203,0.256-0.48,0.49-0.832,0.703c-0.352,0.214-0.768,0.39-1.248,0.528
				s-1.008,0.208-1.584,0.208c-0.64,0-1.28-0.08-1.92-0.24c-0.64-0.159-1.211-0.592-1.712-1.296
				c-0.502-0.704-0.907-1.754-1.216-3.151c-0.31-1.397-0.464-3.302-0.464-5.712c0-2.816,0.192-5.057,0.576-6.721
				c0.384-1.664,0.875-2.917,1.472-3.76s1.264-1.392,2-1.648C99.116,15.472,99.835,15.344,100.54,15.344z"/>
			<path fill="#6C7A88" d="M114.235,36.368c0,0.747-0.016,1.205-0.048,1.376c-0.032,0.171-0.144,0.256-0.336,0.256h-7.648V16.048
				c0-0.063,0.021-0.139,0.064-0.224c0.042-0.043,0.085-0.091,0.128-0.145c0.042-0.053,0.117-0.08,0.224-0.08h7.648
				c0,0.726-0.011,1.18-0.032,1.36c-0.021,0.182-0.118,0.272-0.288,0.272h-6.016v7.712h5.632c0,0.683-0.016,1.125-0.048,1.328
				c-0.032,0.202-0.144,0.304-0.336,0.304h-5.248v9.792H114.235z"/>
			<path fill="#6C7A88" d="M118.715,36.336h6.336v1.248c0,0.171-0.037,0.283-0.111,0.336c-0.075,0.054-0.188,0.08-0.336,0.08h-7.681
				V16.24c0-0.149,0.011-0.272,0.032-0.368c0.021-0.096,0.085-0.16,0.192-0.192c0.106-0.031,0.283-0.053,0.528-0.063
				c0.245-0.011,0.592-0.017,1.04-0.017V36.336z"/>
			<path fill="#6C7A88" d="M132.41,26.64c0-2.068,0.129-3.829,0.385-5.279c0.256-1.451,0.641-2.624,1.152-3.521
				c0.512-0.896,1.151-1.546,1.92-1.952c0.768-0.404,1.664-0.607,2.688-0.607c1.045,0,1.931,0.191,2.656,0.576
				c0.725,0.384,1.312,1.019,1.76,1.903c0.448,0.886,0.773,2.048,0.977,3.488c0.202,1.44,0.304,3.227,0.304,5.36
				c0,2.154-0.118,3.979-0.353,5.472s-0.598,2.704-1.088,3.632s-1.119,1.595-1.888,2s-1.675,0.608-2.72,0.608
				c-1.024,0-1.904-0.182-2.641-0.544c-0.736-0.363-1.333-0.992-1.791-1.889c-0.459-0.896-0.801-2.096-1.025-3.6
				C132.523,30.784,132.41,28.901,132.41,26.64z M134.363,27.184c0,1.707,0.068,3.147,0.207,4.32
				c0.139,1.174,0.363,2.134,0.672,2.88c0.31,0.747,0.715,1.286,1.217,1.616c0.501,0.331,1.104,0.496,1.808,0.496
				c0.726,0,1.349-0.176,1.872-0.528c0.522-0.352,0.949-0.922,1.28-1.712c0.331-0.789,0.57-1.812,0.72-3.072
				c0.148-1.258,0.225-2.794,0.225-4.607c0-1.771-0.07-3.259-0.209-4.464s-0.357-2.182-0.655-2.929
				c-0.3-0.746-0.699-1.284-1.2-1.615c-0.502-0.331-1.104-0.496-1.809-0.496c-0.703,0-1.316,0.176-1.84,0.527
				c-0.522,0.353-0.949,0.929-1.279,1.729c-0.331,0.8-0.582,1.846-0.752,3.136C134.447,23.755,134.363,25.328,134.363,27.184z"/>
			<path fill="#6C7A88" d="M147.227,16.048c0-0.063,0.021-0.139,0.064-0.224c0.043-0.043,0.085-0.091,0.128-0.145
				c0.042-0.053,0.116-0.08,0.224-0.08h3.328c2.005,0,3.439,0.544,4.305,1.633c0.863,1.088,1.295,2.57,1.295,4.447
				c0,1.813-0.293,3.232-0.879,4.256c-0.588,1.024-1.393,1.75-2.416,2.177c0.234,0.299,0.512,0.72,0.832,1.264
				c0.319,0.544,0.639,1.205,0.959,1.984c0.32,0.778,0.613,1.68,0.881,2.704c0.266,1.023,0.453,2.176,0.56,3.455
				c0.021,0.192-0.017,0.32-0.112,0.385c-0.096,0.063-0.347,0.106-0.752,0.128c-0.128,0-0.271,0-0.432,0s-0.348-0.011-0.561-0.032
				c-0.148-1.45-0.363-2.72-0.64-3.808c-0.277-1.089-0.571-2.017-0.88-2.784c-0.31-0.769-0.607-1.387-0.896-1.856
				c-0.287-0.469-0.518-0.82-0.688-1.056c-0.107,0.021-0.225,0.032-0.352,0.032c-0.129,0-0.246,0-0.353,0h-1.888v9.056
				c0,0.107-0.012,0.188-0.032,0.24c-0.021,0.054-0.085,0.096-0.192,0.128c-0.106,0.032-0.277,0.048-0.512,0.048s-0.565,0-0.992,0
				V16.048z M154.65,21.616c0-0.641-0.053-1.227-0.16-1.76c-0.106-0.533-0.299-0.997-0.575-1.393
				c-0.278-0.395-0.64-0.704-1.089-0.928c-0.447-0.225-1.013-0.336-1.695-0.336h-2.176v9.664h2.016
				C153.424,26.864,154.65,25.115,154.65,21.616z"/>
			<path fill="#6C7A88" d="M163.387,15.6c1.023,0,1.925,0.177,2.704,0.528c0.778,0.353,1.424,0.918,1.937,1.696
				c0.512,0.778,0.9,1.808,1.168,3.088c0.266,1.28,0.399,2.848,0.399,4.704c0,2.518-0.16,4.581-0.479,6.191
				c-0.32,1.611-0.764,2.875-1.328,3.792c-0.566,0.918-1.238,1.548-2.017,1.889S164.154,38,163.259,38h-3.872V16.144
				c0-0.17,0.053-0.304,0.16-0.399c0.106-0.096,0.32-0.145,0.64-0.145H163.387z M167.675,25.488c0-1.536-0.085-2.827-0.256-3.872
				s-0.438-1.894-0.8-2.544c-0.363-0.65-0.816-1.12-1.36-1.408s-1.179-0.432-1.904-0.432h-2.208v19.071h2.145
				c0.555,0,1.098-0.117,1.632-0.352c0.532-0.234,1.003-0.736,1.407-1.504c0.406-0.769,0.73-1.861,0.977-3.28
				C167.552,29.749,167.675,27.856,167.675,25.488z"/>
			<path fill="#6C7A88" d="M180.698,36.368c0,0.747-0.017,1.205-0.048,1.376c-0.032,0.171-0.145,0.256-0.336,0.256h-7.648V16.048
				c0-0.063,0.021-0.139,0.064-0.224c0.043-0.043,0.085-0.091,0.128-0.145c0.042-0.053,0.116-0.08,0.224-0.08h7.648
				c0,0.726-0.012,1.18-0.032,1.36c-0.021,0.182-0.118,0.272-0.288,0.272h-6.016v7.712h5.632c0,0.683-0.017,1.125-0.048,1.328
				c-0.032,0.202-0.145,0.304-0.336,0.304h-5.248v9.792H180.698z"/>
			<path fill="#6C7A88" d="M183.386,16.048c0-0.063,0.021-0.139,0.064-0.224c0.042-0.043,0.085-0.091,0.128-0.145
				c0.043-0.053,0.117-0.08,0.224-0.08h3.328c2.005,0,3.44,0.544,4.304,1.633c0.864,1.088,1.297,2.57,1.297,4.447
				c0,1.813-0.294,3.232-0.881,4.256c-0.586,1.024-1.392,1.75-2.416,2.177c0.234,0.299,0.512,0.72,0.832,1.264
				s0.641,1.205,0.961,1.984c0.319,0.778,0.612,1.68,0.879,2.704c0.268,1.023,0.453,2.176,0.561,3.455
				c0.021,0.192-0.016,0.32-0.111,0.385c-0.097,0.063-0.348,0.106-0.753,0.128c-0.128,0-0.272,0-0.432,0
				c-0.16,0-0.347-0.011-0.56-0.032c-0.15-1.45-0.363-2.72-0.641-3.808c-0.277-1.089-0.57-2.017-0.88-2.784
				c-0.31-0.769-0.608-1.387-0.896-1.856c-0.289-0.469-0.518-0.82-0.688-1.056c-0.106,0.021-0.224,0.032-0.353,0.032
				c-0.127,0-0.245,0-0.352,0h-1.889v9.056c0,0.107-0.01,0.188-0.031,0.24c-0.021,0.054-0.086,0.096-0.191,0.128
				c-0.107,0.032-0.278,0.048-0.513,0.048c-0.235,0-0.565,0-0.992,0V16.048z M190.811,21.616c0-0.641-0.055-1.227-0.16-1.76
				c-0.107-0.533-0.299-0.997-0.576-1.393c-0.277-0.395-0.641-0.704-1.088-0.928c-0.448-0.225-1.014-0.336-1.696-0.336h-2.177v9.664
				h2.017C189.583,26.864,190.811,25.115,190.811,21.616z"/>
		</g>
	</g>
</g>
</svg>
