<?xml version="1.0" encoding="utf-8"?>
<!-- Generator: Adobe Illustrator 16.0.3, SVG Export Plug-In . SVG Version: 6.00 Build 0)  -->
<!DOCTYPE svg PUBLIC "-//W3C//DTD SVG 1.1//EN" "http://www.w3.org/Graphics/SVG/1.1/DTD/svg11.dtd">
<svg version="1.1" id="Layer_1" xmlns="http://www.w3.org/2000/svg" xmlns:xlink="http://www.w3.org/1999/xlink" x="0px" y="0px"
	 width="246px" height="52px" viewBox="0 0 246 52" enable-background="new 0 0 246 52" xml:space="preserve">
<title>Searching</title>
<desc>Created with Sketch.</desc>
<g id="Page-1">
	<g id="Searching">
		<rect id="Rectangle-2-Copy-10" fill="#D9155D" width="246" height="52"/>
		<g enable-background="new    ">
			<path fill="#FFFFFF" d="M48.17,14.761c-2.634,7.217-4.992,14.953-7.072,23.209l-8.832,1.594
				c0.553-3.143,0.896-6.973,1.029-11.488c0.066-3.852,0.133-7.703,0.199-11.555l6.641-1.494L37.279,36.21h0.033l4.848-20.354
				L48.17,14.761z"/>
			<path fill="#FFFFFF" d="M52.497,20.759c-0.177,0.645-0.332,1.277-0.464,1.898l-0.365,1.832l5.312-1.129l-0.298,4.584
				c-2.518,0.442-4.495,0.83-5.93,1.162c-0.088,0.442-0.166,0.886-0.232,1.328l-0.249,1.294l6.178-0.897l-0.432,6.176
				c-3.188,0.266-7.228,1.029-12.119,2.291l3.952-23.807l11.059-1.628l-0.434,6.169C56.305,20.23,54.312,20.473,52.497,20.759z"/>
			<path fill="#FFFFFF" d="M60.711,15.79c3.475-1.04,6.319-1.561,8.533-1.561c2.988,0,4.471,1.041,4.449,3.121
				c-0.022,2.988-1.904,5.988-5.645,8.998c0.31,0.842,1.594,3.486,3.852,7.936c-1.146,1.062-2.875,2.623-5.188,4.682l-3.536-9.164
				l-0.033,0.007l-0.042-0.007c-0.526,2.899-0.921,5.576-1.185,8.032l-5.257,1.464c0.044-0.486,0.288-1.959,0.73-4.416L60.711,15.79
				z M64.895,21.036c-0.199,0.753-0.376,1.506-0.531,2.258l-0.465,2.258c0.774-0.398,1.538-0.918,2.291-1.561
				c0.863-0.752,1.438-1.472,1.727-2.158c0.11-0.199,0.166-0.387,0.166-0.564c0-0.486-0.321-0.73-0.963-0.73
				C66.61,20.538,65.869,20.704,64.895,21.036z"/>
			<path fill="#FFFFFF" d="M75.631,15.823l5.711-1.062c-2.302,8.877-3.808,16.568-4.516,23.076l-5.279,1.461L75.631,15.823z"/>
			<path fill="#FFFFFF" d="M87.263,20.755c-0.154,0.619-0.286,1.227-0.395,1.823l-0.395,1.791l5.806-1.214l-0.299,4.654
				c-2.274,0.354-4.416,0.766-6.425,1.23c-0.533,2.965-0.956,5.896-1.267,8.794l-5.689,1.464l3.885-23.807l11.355-1.594
				l-0.397,6.124C91.227,20.222,89.167,20.467,87.263,20.755z"/>
			<path fill="#FFFFFF" d="M104.21,15.325l5.346,0.93c-4.781,8.39-8.566,15.982-11.355,22.777L93.087,38.7l3.52-7.404l-2.789-13.348
				l6.475-2.988c-0.066,1.019-0.111,2.291-0.133,3.818c-0.022,1.527,0.055,3.055,0.232,4.582L104.21,15.325z"/>
			<path fill="#FFFFFF" d="M115.789,15.79c2.545-0.841,4.704-1.262,6.475-1.262c1.993,0,3.508,0.521,4.549,1.561
				c1.438,1.483,2.158,3.287,2.158,5.412c0,0.775-0.1,1.594-0.299,2.457c-0.863,3.896-2.9,7.3-6.11,10.21
				c-3.21,2.911-6.785,4.621-10.725,5.13c0.044-0.486,0.277-1.937,0.697-4.35l2.656-15.273
				C115.567,17.396,115.766,16.101,115.789,15.79z M120.537,21.269c-1.019,4.339-1.793,8.445-2.324,12.318
				c1.328-1.262,2.512-2.723,3.553-4.383c1.284-2.036,1.926-3.785,1.926-5.246C123.691,22.077,122.639,21.181,120.537,21.269z"/>
			<path fill="#FFFFFF" d="M135.189,20.759c-0.177,0.645-0.331,1.277-0.463,1.898l-0.365,1.832l5.312-1.129l-0.299,4.584
				c-2.518,0.442-4.494,0.83-5.93,1.162c-0.088,0.442-0.166,0.886-0.232,1.328l-0.248,1.294l6.178-0.897l-0.432,6.176
				c-3.188,0.266-7.228,1.029-12.119,2.291l3.951-23.807l11.059-1.628l-0.434,6.169C138.998,20.23,137.006,20.473,135.189,20.759z"
				/>
			<path fill="#FFFFFF" d="M143.67,15.823l5.711-1.062c-1.594,6.132-2.822,11.787-3.686,16.967l5.844-0.896l-0.498,6.176
				c-3.011,0.266-6.829,1.029-11.455,2.291L143.67,15.823z"/>
			<path fill="#FFFFFF" d="M155.867,15.823l5.711-1.062c-2.302,8.877-3.807,16.568-4.516,23.076l-5.279,1.461L155.867,15.823z"/>
			<path fill="#FFFFFF" d="M176.863,14.761c-2.634,7.217-4.991,14.953-7.072,23.209l-8.832,1.594
				c0.554-3.143,0.896-6.973,1.029-11.488c0.066-3.852,0.133-7.703,0.199-11.555l6.641-1.494l-2.855,21.184h0.033l4.848-20.354
				L176.863,14.761z"/>
			<path fill="#FFFFFF" d="M181.191,20.759c-0.178,0.645-0.332,1.277-0.465,1.898l-0.364,1.832l5.312-1.129l-0.298,4.584
				c-2.519,0.442-4.495,0.83-5.931,1.162c-0.089,0.442-0.165,0.886-0.231,1.328l-0.249,1.294l6.178-0.897l-0.432,6.176
				c-3.188,0.266-7.228,1.029-12.119,2.291l3.952-23.807l11.059-1.628l-0.434,6.169C185,20.23,183.007,20.473,181.191,20.759z"/>
			<path fill="#FFFFFF" d="M189.405,15.79c3.476-1.04,6.319-1.561,8.533-1.561c2.988,0,4.472,1.041,4.449,3.121
				c-0.022,2.988-1.903,5.988-5.645,8.998c0.31,0.842,1.594,3.486,3.852,7.936c-1.146,1.062-2.874,2.623-5.188,4.682l-3.536-9.164
				l-0.033,0.007l-0.042-0.007c-0.526,2.899-0.921,5.576-1.185,8.032l-5.257,1.464c0.044-0.486,0.288-1.959,0.73-4.416
				L189.405,15.79z M193.589,21.036c-0.199,0.753-0.376,1.506-0.531,2.258l-0.465,2.258c0.774-0.398,1.538-0.918,2.291-1.561
				c0.863-0.752,1.438-1.472,1.727-2.158c0.11-0.199,0.166-0.387,0.166-0.564c0-0.486-0.321-0.73-0.963-0.73
				C195.305,20.538,194.562,20.704,193.589,21.036z"/>
			<path fill="#FFFFFF" d="M212.195,15.325l5.346,0.93c-4.781,8.39-8.566,15.982-11.355,22.777l-5.113-0.332l3.52-7.404
				l-2.789-13.348l6.475-2.988c-0.066,1.019-0.111,2.291-0.133,3.818c-0.023,1.527,0.055,3.055,0.232,4.582L212.195,15.325z"/>
		</g>
	</g>
</g>
</svg>
